{
	"asset":{
		"generator":"Khronos glTF Blender I/O v4.0.44",
		"version":"2.0"
	},
	"scene":0,
	"scenes":[
		{
			"name":"Scene",
			"nodes":[
				0,
				1,
				2,
				3,
				4,
				5,
				6,
				7,
				8,
				9
			]
		}
	],
	"nodes":[
		{
			"mesh":0,
			"name":"Cube"
		},
		{
			"mesh":1,
			"name":"Cube.001"
		},
		{
			"mesh":2,
			"name":"Cube.002",
			"translation":[
				-0.003939986228942871,
				0.10104595869779587,
				0.8350521922111511
			]
		},
		{
			"mesh":3,
			"name":"Cube.003"
		},
		{
			"mesh":4,
			"name":"Cube.004",
			"scale":[
				0.9801599383354187,
				0.9604892134666443,
				0.9801599383354187
			]
		},
		{
			"mesh":5,
			"name":"\u7acb\u65b9\u4f53",
			"rotation":[
				0,
				1,
				0,
				0
			],
			"scale":[
				0.01569386199116707,
				0.036411453038454056,
				0.007685687392950058
			],
			"translation":[
				-0.8778876066207886,
				1.334665298461914,
				-0.007520940620452166
			]
		},
		{
			"mesh":6,
			"name":"\u7acb\u65b9\u4f53.001",
			"rotation":[
				0,
				1,
				0,
				0
			],
			"scale":[
				0.01569386199116707,
				0.04738134145736694,
				0.00432862713932991
			],
			"translation":[
				-0.8754780292510986,
				1.345941424369812,
				-0.026182666420936584
			]
		},
		{
			"mesh":7,
			"name":"\u7acb\u65b9\u4f53.002",
			"rotation":[
				0,
				1,
				0,
				0
			],
			"scale":[
				0.01569386199116707,
				0.036411453038454056,
				0.007685687392950058
			],
			"translation":[
				-0.8782002925872803,
				1.3349394798278809,
				0.010598074644804
			]
		},
		{
			"mesh":8,
			"name":"\u7acb\u65b9\u4f53.003",
			"rotation":[
				0,
				1,
				0,
				0
			],
			"scale":[
				0.01569386199116707,
				0.036411453038454056,
				0.007685687392950058
			],
			"translation":[
				-0.8778694868087769,
				1.3341169357299805,
				0.028722481802105904
			]
		},
		{
			"mesh":9,
			"name":"\u7acb\u65b9\u4f53.004",
			"rotation":[
				0,
				1,
				0,
				0
			],
			"scale":[
				0.01569386199116707,
				0.036411453038454056,
				0.009062252007424831
			],
			"translation":[
				-0.8775493502616882,
				1.33329439163208,
				0.04811849445104599
			]
		}
	],
	"materials":[
		{
			"doubleSided":true,
			"name":"Material.001",
			"pbrMetallicRoughness":{
				"baseColorFactor":[
					0.0032677650451660156,
					0.25964200496673584,
					0.800054669380188,
					1
				],
				"metallicFactor":0,
				"roughnessFactor":0.7018348574638367
			}
		},
		{
			"doubleSided":true,
			"name":"Material",
			"pbrMetallicRoughness":{
				"baseColorFactor":[
					0.8000156879425049,
					0.29086238145828247,
					0.10274062305688858,
					1
				],
				"metallicFactor":0,
				"roughnessFactor":0.5
			}
		}
	],
	"meshes":[
		{
			"name":"Cube",
			"primitives":[
				{
					"attributes":{
						"POSITION":0,
						"NORMAL":1,
						"TEXCOORD_0":2
					},
					"indices":3,
					"material":0
				}
			]
		},
		{
			"name":"Cube.001",
			"primitives":[
				{
					"attributes":{
						"POSITION":4,
						"NORMAL":5,
						"TEXCOORD_0":6
					},
					"indices":7,
					"material":1
				}
			]
		},
		{
			"name":"Cube.010",
			"primitives":[
				{
					"attributes":{
						"POSITION":8,
						"NORMAL":9,
						"TEXCOORD_0":10
					},
					"indices":7,
					"material":1
				}
			]
		},
		{
			"name":"Cube.011",
			"primitives":[
				{
					"attributes":{
						"POSITION":11,
						"NORMAL":12,
						"TEXCOORD_0":13
					},
					"indices":14,
					"material":1
				}
			]
		},
		{
			"name":"Cube.012",
			"primitives":[
				{
					"attributes":{
						"POSITION":15,
						"NORMAL":16,
						"TEXCOORD_0":17
					},
					"indices":18,
					"material":1
				}
			]
		},
		{
			"name":"\u7acb\u65b9\u4f53",
			"primitives":[
				{
					"attributes":{
						"POSITION":19,
						"NORMAL":20,
						"TEXCOORD_0":21
					},
					"indices":22
				}
			]
		},
		{
			"name":"\u7acb\u65b9\u4f53.001",
			"primitives":[
				{
					"attributes":{
						"POSITION":23,
						"NORMAL":24,
						"TEXCOORD_0":25
					},
					"indices":26
				}
			]
		},
		{
			"name":"\u7acb\u65b9\u4f53.002",
			"primitives":[
				{
					"attributes":{
						"POSITION":27,
						"NORMAL":28,
						"TEXCOORD_0":29
					},
					"indices":22
				}
			]
		},
		{
			"name":"\u7acb\u65b9\u4f53.003",
			"primitives":[
				{
					"attributes":{
						"POSITION":30,
						"NORMAL":31,
						"TEXCOORD_0":32
					},
					"indices":22
				}
			]
		},
		{
			"name":"\u7acb\u65b9\u4f53.004",
			"primitives":[
				{
					"attributes":{
						"POSITION":33,
						"NORMAL":34,
						"TEXCOORD_0":35
					},
					"indices":22
				}
			]
		}
	],
	"accessors":[
		{
			"bufferView":0,
			"componentType":5126,
			"count":192,
			"max":[
				1.047690749168396,
				2,
				1.047690749168396
			],
			"min":[
				-1.2476907968521118,
				0,
				-1.2476907968521118
			],
			"type":"VEC3"
		},
		{
			"bufferView":1,
			"componentType":5126,
			"count":192,
			"type":"VEC3"
		},
		{
			"bufferView":2,
			"componentType":5126,
			"count":192,
			"type":"VEC2"
		},
		{
			"bufferView":3,
			"componentType":5123,
			"count":348,
			"type":"SCALAR"
		},
		{
			"bufferView":4,
			"componentType":5126,
			"count":4,
			"max":[
				1,
				0,
				1
			],
			"min":[
				-1,
				0,
				-1
			],
			"type":"VEC3"
		},
		{
			"bufferView":5,
			"componentType":5126,
			"count":4,
			"type":"VEC3"
		},
		{
			"bufferView":6,
			"componentType":5126,
			"count":4,
			"type":"VEC2"
		},
		{
			"bufferView":7,
			"componentType":5123,
			"count":6,
			"type":"SCALAR"
		},
		{
			"bufferView":8,
			"componentType":5126,
			"count":4,
			"max":[
				1,
				0,
				0.15670466423034668
			],
			"min":[
				-1,
				0,
				-0.15670466423034668
			],
			"type":"VEC3"
		},
		{
			"bufferView":9,
			"componentType":5126,
			"count":4,
			"type":"VEC3"
		},
		{
			"bufferView":10,
			"componentType":5126,
			"count":4,
			"type":"VEC2"
		},
		{
			"bufferView":11,
			"componentType":5126,
			"count":48,
			"max":[
				0.29712727665901184,
				1.4136271476745605,
				-0.9072452783584595
			],
			"min":[
				-0.29712727665901184,
				0.6700036525726318,
				-1
			],
			"type":"VEC3"
		},
		{
			"bufferView":12,
			"componentType":5126,
			"count":48,
			"type":"VEC3"
		},
		{
			"bufferView":13,
			"componentType":5126,
			"count":48,
			"type":"VEC2"
		},
		{
			"bufferView":14,
			"componentType":5123,
			"count":84,
			"type":"SCALAR"
		},
		{
			"bufferView":15,
			"componentType":5126,
			"count":2976,
			"max":[
				-0.6313205361366272,
				1.2917301654815674,
				-0.6524597406387329
			],
			"min":[
				-0.812233030796051,
				1.1423650979995728,
				-0.8333722352981567
			],
			"type":"VEC3"
		},
		{
			"bufferView":16,
			"componentType":5126,
			"count":2976,
			"type":"VEC3"
		},
		{
			"bufferView":17,
			"componentType":5126,
			"count":2976,
			"type":"VEC2"
		},
		{
			"bufferView":18,
			"componentType":5123,
			"count":4320,
			"type":"SCALAR"
		},
		{
			"bufferView":19,
			"componentType":5126,
			"count":110,
			"max":[
				1.00379478931427,
				1.0037949085235596,
				1
			],
			"min":[
				-1,
				-1,
				-1
			],
			"type":"VEC3"
		},
		{
			"bufferView":20,
			"componentType":5126,
			"count":110,
			"type":"VEC3"
		},
		{
			"bufferView":21,
			"componentType":5126,
			"count":110,
			"type":"VEC2"
		},
		{
			"bufferView":22,
			"componentType":5123,
			"count":180,
			"type":"SCALAR"
		},
		{
			"bufferView":23,
			"componentType":5126,
			"count":24,
			"max":[
				1,
				1,
				1
			],
			"min":[
				-1,
				-1,
				-1
			],
			"type":"VEC3"
		},
		{
			"bufferView":24,
			"componentType":5126,
			"count":24,
			"type":"VEC3"
		},
		{
			"bufferView":25,
			"componentType":5126,
			"count":24,
			"type":"VEC2"
		},
		{
			"bufferView":26,
			"componentType":5123,
			"count":36,
			"type":"SCALAR"
		},
		{
			"bufferView":27,
			"componentType":5126,
			"count":110,
			"max":[
				1.00379478931427,
				1.0037949085235596,
				1
			],
			"min":[
				-1,
				-1,
				-1
			],
			"type":"VEC3"
		},
		{
			"bufferView":28,
			"componentType":5126,
			"count":110,
			"type":"VEC3"
		},
		{
			"bufferView":29,
			"componentType":5126,
			"count":110,
			"type":"VEC2"
		},
		{
			"bufferView":30,
			"componentType":5126,
			"count":110,
			"max":[
				1.00379478931427,
				1.0037949085235596,
				1
			],
			"min":[
				-1,
				-1,
				-1
			],
			"type":"VEC3"
		},
		{
			"bufferView":31,
			"componentType":5126,
			"count":110,
			"type":"VEC3"
		},
		{
			"bufferView":32,
			"componentType":5126,
			"count":110,
			"type":"VEC2"
		},
		{
			"bufferView":33,
			"componentType":5126,
			"count":110,
			"max":[
				1.00379478931427,
				1.0037949085235596,
				1
			],
			"min":[
				-1,
				-1,
				-1
			],
			"type":"VEC3"
		},
		{
			"bufferView":34,
			"componentType":5126,
			"count":110,
			"type":"VEC3"
		},
		{
			"bufferView":35,
			"componentType":5126,
			"count":110,
			"type":"VEC2"
		}
	],
	"bufferViews":[
		{
			"buffer":0,
			"byteLength":2304,
			"byteOffset":0,
			"target":34962
		},
		{
			"buffer":0,
			"byteLength":2304,
			"byteOffset":2304,
			"target":34962
		},
		{
			"buffer":0,
			"byteLength":1536,
			"byteOffset":4608,
			"target":34962
		},
		{
			"buffer":0,
			"byteLength":696,
			"byteOffset":6144,
			"target":34963
		},
		{
			"buffer":0,
			"byteLength":48,
			"byteOffset":6840,
			"target":34962
		},
		{
			"buffer":0,
			"byteLength":48,
			"byteOffset":6888,
			"target":34962
		},
		{
			"buffer":0,
			"byteLength":32,
			"byteOffset":6936,
			"target":34962
		},
		{
			"buffer":0,
			"byteLength":12,
			"byteOffset":6968,
			"target":34963
		},
		{
			"buffer":0,
			"byteLength":48,
			"byteOffset":6980,
			"target":34962
		},
		{
			"buffer":0,
			"byteLength":48,
			"byteOffset":7028,
			"target":34962
		},
		{
			"buffer":0,
			"byteLength":32,
			"byteOffset":7076,
			"target":34962
		},
		{
			"buffer":0,
			"byteLength":576,
			"byteOffset":7108,
			"target":34962
		},
		{
			"buffer":0,
			"byteLength":576,
			"byteOffset":7684,
			"target":34962
		},
		{
			"buffer":0,
			"byteLength":384,
			"byteOffset":8260,
			"target":34962
		},
		{
			"buffer":0,
			"byteLength":168,
			"byteOffset":8644,
			"target":34963
		},
		{
			"buffer":0,
			"byteLength":35712,
			"byteOffset":8812,
			"target":34962
		},
		{
			"buffer":0,
			"byteLength":35712,
			"byteOffset":44524,
			"target":34962
		},
		{
			"buffer":0,
			"byteLength":23808,
			"byteOffset":80236,
			"target":34962
		},
		{
			"buffer":0,
			"byteLength":8640,
			"byteOffset":104044,
			"target":34963
		},
		{
			"buffer":0,
			"byteLength":1320,
			"byteOffset":112684,
			"target":34962
		},
		{
			"buffer":0,
			"byteLength":1320,
			"byteOffset":114004,
			"target":34962
		},
		{
			"buffer":0,
			"byteLength":880,
			"byteOffset":115324,
			"target":34962
		},
		{
			"buffer":0,
			"byteLength":360,
			"byteOffset":116204,
			"target":34963
		},
		{
			"buffer":0,
			"byteLength":288,
			"byteOffset":116564,
			"target":34962
		},
		{
			"buffer":0,
			"byteLength":288,
			"byteOffset":116852,
			"target":34962
		},
		{
			"buffer":0,
			"byteLength":192,
			"byteOffset":117140,
			"target":34962
		},
		{
			"buffer":0,
			"byteLength":72,
			"byteOffset":117332,
			"target":34963
		},
		{
			"buffer":0,
			"byteLength":1320,
			"byteOffset":117404,
			"target":34962
		},
		{
			"buffer":0,
			"byteLength":1320,
			"byteOffset":118724,
			"target":34962
		},
		{
			"buffer":0,
			"byteLength":880,
			"byteOffset":120044,
			"target":34962
		},
		{
			"buffer":0,
			"byteLength":1320,
			"byteOffset":120924,
			"target":34962
		},
		{
			"buffer":0,
			"byteLength":1320,
			"byteOffset":122244,
			"target":34962
		},
		{
			"buffer":0,
			"byteLength":880,
			"byteOffset":123564,
			"target":34962
		},
		{
			"buffer":0,
			"byteLength":1320,
			"byteOffset":124444,
			"target":34962
		},
		{
			"buffer":0,
			"byteLength":1320,
			"byteOffset":125764,
			"target":34962
		},
		{
			"buffer":0,
			"byteLength":880,
			"byteOffset":127084,
			"target":34962
		}
	],
	"buffers":[
		{
			"byteLength":127964,
			"uri":"house.bin"
		}
	]
}
