{
	"asset":{
		"generator":"Khronos glTF Blender I/O v3.6.27",
		"version":"2.0"
	},
	"scene":0,
	"scenes":[
		{
			"name":"Scene",
			"nodes":[
				0,
				3,
				4,
				5,
				6,
				7,
				8,
				9,
				10,
				11,
				12,
				13,
				14,
				15,
				16
			]
		}
	],
	"nodes":[
		{
			"name":"\u7a7a\u7269\u4f53"
		},
		{
			"mesh":0,
			"name":"Baseboard"
		},
		{
			"mesh":1,
			"name":"Floor"
		},
		{
			"children":[
				1,
				2
			],
			"mesh":2,
			"name":"Room",
			"translation":[
				-2.576113700866699,
				0,
				5.8602094650268555
			]
		},
		{
			"mesh":3,
			"name":"Room.001",
			"translation":[
				-2.485536813735962,
				0,
				4.156102657318115
			]
		},
		{
			"mesh":4,
			"name":"Room.002",
			"translation":[
				3.1344852447509766,
				0,
				0.1634185016155243
			]
		},
		{
			"mesh":5,
			"name":"Room.003",
			"translation":[
				-1.7464916706085205,
				0,
				1.6104013919830322
			]
		},
		{
			"mesh":6,
			"name":"Room.005",
			"translation":[
				-1.780514121055603,
				0,
				-4.456955909729004
			]
		},
		{
			"mesh":7,
			"name":"Room.004",
			"translation":[
				0.44621139764785767,
				0,
				3.491325855255127
			]
		},
		{
			"mesh":8,
			"name":"Room.006",
			"translation":[
				1.140475869178772,
				0.031589508056640625,
				1.456984281539917
			]
		},
		{
			"mesh":9,
			"name":"Room.007",
			"translation":[
				1.140475869178772,
				0.031589508056640625,
				2.598945140838623
			]
		},
		{
			"mesh":10,
			"name":"Room.008",
			"translation":[
				1.140475869178772,
				0.031589508056640625,
				3.748781442642212
			]
		},
		{
			"mesh":11,
			"name":"Room.009",
			"translation":[
				-2.521674156188965,
				0.031589508056640625,
				5.127009868621826
			]
		},
		{
			"mesh":12,
			"name":"Room.010",
			"rotation":[
				0,
				0.7071068286895752,
				0,
				0.7071068286895752
			],
			"translation":[
				-0.8327056169509888,
				0,
				5.783208847045898
			]
		},
		{
			"mesh":13,
			"name":"Room.011",
			"rotation":[
				0,
				0.7071068286895752,
				0,
				0.7071068286895752
			],
			"translation":[
				-1.5163507461547852,
				0,
				5.783208847045898
			]
		},
		{
			"mesh":14,
			"name":"Room.012",
			"rotation":[
				0,
				0.7071068286895752,
				0,
				0.7071068286895752
			],
			"translation":[
				-0.3587580621242523,
				0,
				-4.475149631500244
			]
		},
		{
			"mesh":15,
			"name":"Room.013",
			"rotation":[
				0,
				0.7071068286895752,
				0,
				0.7071068286895752
			],
			"translation":[
				1.0796314477920532,
				0,
				-4.475149631500244
			]
		}
	],
	"materials":[
		{
			"doubleSided":true,
			"name":"Baseboard_material",
			"pbrMetallicRoughness":{}
		},
		{
			"doubleSided":true,
			"name":"Floor_material",
			"pbrMetallicRoughness":{
				"metallicFactor":0,
				"roughnessFactor":0.5
			}
		},
		{
			"doubleSided":true,
			"name":"Wall_material",
			"pbrMetallicRoughness":{}
		}
	],
	"meshes":[
		{
			"name":"Baseboard",
			"primitives":[
				{
					"attributes":{
						"POSITION":0,
						"NORMAL":1,
						"TEXCOORD_0":2
					},
					"indices":3,
					"material":0
				}
			]
		},
		{
			"name":"Floor",
			"primitives":[
				{
					"attributes":{
						"POSITION":4,
						"NORMAL":5,
						"TEXCOORD_0":6
					},
					"indices":7,
					"material":1
				}
			]
		},
		{
			"name":"Room.002",
			"primitives":[
				{
					"attributes":{
						"POSITION":8,
						"NORMAL":9,
						"TEXCOORD_0":10
					},
					"indices":3,
					"material":2
				}
			]
		},
		{
			"name":"Room.003",
			"primitives":[
				{
					"attributes":{
						"POSITION":11,
						"NORMAL":12,
						"TEXCOORD_0":13
					},
					"indices":14,
					"material":2
				}
			]
		},
		{
			"name":"Room.004",
			"primitives":[
				{
					"attributes":{
						"POSITION":15,
						"NORMAL":16,
						"TEXCOORD_0":17
					},
					"indices":18,
					"material":2
				}
			]
		},
		{
			"name":"Room.005",
			"primitives":[
				{
					"attributes":{
						"POSITION":19,
						"NORMAL":20,
						"TEXCOORD_0":21
					},
					"indices":22,
					"material":2
				}
			]
		},
		{
			"name":"Room.007",
			"primitives":[
				{
					"attributes":{
						"POSITION":23,
						"NORMAL":24,
						"TEXCOORD_0":25
					},
					"indices":14,
					"material":2
				}
			]
		},
		{
			"name":"Room.008",
			"primitives":[
				{
					"attributes":{
						"POSITION":26,
						"NORMAL":27,
						"TEXCOORD_0":28
					},
					"indices":29,
					"material":2
				}
			]
		},
		{
			"name":"Room.009",
			"primitives":[
				{
					"attributes":{
						"POSITION":30,
						"NORMAL":31,
						"TEXCOORD_0":32
					},
					"indices":14,
					"material":2
				}
			]
		},
		{
			"name":"Room.010",
			"primitives":[
				{
					"attributes":{
						"POSITION":33,
						"NORMAL":34,
						"TEXCOORD_0":35
					},
					"indices":14,
					"material":2
				}
			]
		},
		{
			"name":"Room.011",
			"primitives":[
				{
					"attributes":{
						"POSITION":36,
						"NORMAL":37,
						"TEXCOORD_0":38
					},
					"indices":14,
					"material":2
				}
			]
		},
		{
			"name":"Room.012",
			"primitives":[
				{
					"attributes":{
						"POSITION":39,
						"NORMAL":40,
						"TEXCOORD_0":41
					},
					"indices":14,
					"material":2
				}
			]
		},
		{
			"name":"Room.013",
			"primitives":[
				{
					"attributes":{
						"POSITION":42,
						"NORMAL":43,
						"TEXCOORD_0":44
					},
					"indices":14,
					"material":2
				}
			]
		},
		{
			"name":"Room.014",
			"primitives":[
				{
					"attributes":{
						"POSITION":45,
						"NORMAL":46,
						"TEXCOORD_0":47
					},
					"indices":14,
					"material":2
				}
			]
		},
		{
			"name":"Room.015",
			"primitives":[
				{
					"attributes":{
						"POSITION":48,
						"NORMAL":49,
						"TEXCOORD_0":50
					},
					"indices":14,
					"material":2
				}
			]
		},
		{
			"name":"Room.016",
			"primitives":[
				{
					"attributes":{
						"POSITION":51,
						"NORMAL":52,
						"TEXCOORD_0":53
					},
					"indices":14,
					"material":2
				}
			]
		}
	],
	"accessors":[
		{
			"bufferView":0,
			"componentType":5126,
			"count":24,
			"max":[
				5.800003528594971,
				0.059999994933605194,
				0
			],
			"min":[
				0,
				0,
				-11.85999870300293
			],
			"type":"VEC3"
		},
		{
			"bufferView":1,
			"componentType":5126,
			"count":24,
			"type":"VEC3"
		},
		{
			"bufferView":2,
			"componentType":5126,
			"count":24,
			"type":"VEC2"
		},
		{
			"bufferView":3,
			"componentType":5123,
			"count":36,
			"type":"SCALAR"
		},
		{
			"bufferView":4,
			"componentType":5126,
			"count":6,
			"max":[
				5.800003528594971,
				0,
				0
			],
			"min":[
				0,
				0,
				-11.85999870300293
			],
			"type":"VEC3"
		},
		{
			"bufferView":5,
			"componentType":5126,
			"count":6,
			"type":"VEC3"
		},
		{
			"bufferView":6,
			"componentType":5126,
			"count":6,
			"type":"VEC2"
		},
		{
			"bufferView":7,
			"componentType":5123,
			"count":12,
			"type":"SCALAR"
		},
		{
			"bufferView":8,
			"componentType":5126,
			"count":24,
			"max":[
				5.800003528594971,
				0.6600017547607422,
				0
			],
			"min":[
				0,
				0,
				-11.85999870300293
			],
			"type":"VEC3"
		},
		{
			"bufferView":9,
			"componentType":5126,
			"count":24,
			"type":"VEC3"
		},
		{
			"bufferView":10,
			"componentType":5126,
			"count":24,
			"type":"VEC2"
		},
		{
			"bufferView":11,
			"componentType":5126,
			"count":4,
			"max":[
				3.6399998664855957,
				0.5300003886222839,
				0
			],
			"min":[
				0,
				0,
				0
			],
			"type":"VEC3"
		},
		{
			"bufferView":12,
			"componentType":5126,
			"count":4,
			"type":"VEC3"
		},
		{
			"bufferView":13,
			"componentType":5126,
			"count":4,
			"type":"VEC2"
		},
		{
			"bufferView":14,
			"componentType":5123,
			"count":6,
			"type":"SCALAR"
		},
		{
			"bufferView":15,
			"componentType":5126,
			"count":8,
			"max":[
				0,
				0.5500004291534424,
				5.660000801086426
			],
			"min":[
				-1.9700000286102295,
				0,
				0
			],
			"type":"VEC3"
		},
		{
			"bufferView":16,
			"componentType":5126,
			"count":8,
			"type":"VEC3"
		},
		{
			"bufferView":17,
			"componentType":5126,
			"count":8,
			"type":"VEC2"
		},
		{
			"bufferView":18,
			"componentType":5123,
			"count":12,
			"type":"SCALAR"
		},
		{
			"bufferView":19,
			"componentType":5126,
			"count":12,
			"max":[
				2.1700000762939453,
				0.5800004005432129,
				0
			],
			"min":[
				-0.009999752044677734,
				0,
				-2.4699997901916504
			],
			"type":"VEC3"
		},
		{
			"bufferView":20,
			"componentType":5126,
			"count":12,
			"type":"VEC3"
		},
		{
			"bufferView":21,
			"componentType":5126,
			"count":12,
			"type":"VEC2"
		},
		{
			"bufferView":22,
			"componentType":5123,
			"count":18,
			"type":"SCALAR"
		},
		{
			"bufferView":23,
			"componentType":5126,
			"count":4,
			"max":[
				4.989999771118164,
				0.5500004291534424,
				0
			],
			"min":[
				0,
				0,
				0
			],
			"type":"VEC3"
		},
		{
			"bufferView":24,
			"componentType":5126,
			"count":4,
			"type":"VEC3"
		},
		{
			"bufferView":25,
			"componentType":5126,
			"count":4,
			"type":"VEC2"
		},
		{
			"bufferView":26,
			"componentType":5126,
			"count":8,
			"max":[
				0,
				0.5800004005432129,
				0
			],
			"min":[
				-0.619999885559082,
				0,
				-1.8700000047683716
			],
			"type":"VEC3"
		},
		{
			"bufferView":27,
			"componentType":5126,
			"count":8,
			"type":"VEC3"
		},
		{
			"bufferView":28,
			"componentType":5126,
			"count":8,
			"type":"VEC2"
		},
		{
			"bufferView":29,
			"componentType":5123,
			"count":12,
			"type":"SCALAR"
		},
		{
			"bufferView":30,
			"componentType":5126,
			"count":4,
			"max":[
				2.02000093460083,
				0.5200004577636719,
				0
			],
			"min":[
				0,
				0,
				0
			],
			"type":"VEC3"
		},
		{
			"bufferView":31,
			"componentType":5126,
			"count":4,
			"type":"VEC3"
		},
		{
			"bufferView":32,
			"componentType":5126,
			"count":4,
			"type":"VEC2"
		},
		{
			"bufferView":33,
			"componentType":5126,
			"count":4,
			"max":[
				2.02000093460083,
				0.5200004577636719,
				0
			],
			"min":[
				0,
				0,
				0
			],
			"type":"VEC3"
		},
		{
			"bufferView":34,
			"componentType":5126,
			"count":4,
			"type":"VEC3"
		},
		{
			"bufferView":35,
			"componentType":5126,
			"count":4,
			"type":"VEC2"
		},
		{
			"bufferView":36,
			"componentType":5126,
			"count":4,
			"max":[
				2.02000093460083,
				0.5200004577636719,
				0
			],
			"min":[
				0,
				0,
				0
			],
			"type":"VEC3"
		},
		{
			"bufferView":37,
			"componentType":5126,
			"count":4,
			"type":"VEC3"
		},
		{
			"bufferView":38,
			"componentType":5126,
			"count":4,
			"type":"VEC2"
		},
		{
			"bufferView":39,
			"componentType":5126,
			"count":4,
			"max":[
				0.6400010585784912,
				0.5200004577636719,
				0
			],
			"min":[
				0,
				0,
				0
			],
			"type":"VEC3"
		},
		{
			"bufferView":40,
			"componentType":5126,
			"count":4,
			"type":"VEC3"
		},
		{
			"bufferView":41,
			"componentType":5126,
			"count":4,
			"type":"VEC2"
		},
		{
			"bufferView":42,
			"componentType":5126,
			"count":4,
			"max":[
				1.6599993705749512,
				0.5500004291534424,
				0
			],
			"min":[
				0,
				0,
				0
			],
			"type":"VEC3"
		},
		{
			"bufferView":43,
			"componentType":5126,
			"count":4,
			"type":"VEC3"
		},
		{
			"bufferView":44,
			"componentType":5126,
			"count":4,
			"type":"VEC2"
		},
		{
			"bufferView":45,
			"componentType":5126,
			"count":4,
			"max":[
				1.6599993705749512,
				0.5500004291534424,
				0
			],
			"min":[
				0,
				0,
				0
			],
			"type":"VEC3"
		},
		{
			"bufferView":46,
			"componentType":5126,
			"count":4,
			"type":"VEC3"
		},
		{
			"bufferView":47,
			"componentType":5126,
			"count":4,
			"type":"VEC2"
		},
		{
			"bufferView":48,
			"componentType":5126,
			"count":4,
			"max":[
				1.4799995422363281,
				0.5200004577636719,
				0
			],
			"min":[
				0,
				0,
				0
			],
			"type":"VEC3"
		},
		{
			"bufferView":49,
			"componentType":5126,
			"count":4,
			"type":"VEC3"
		},
		{
			"bufferView":50,
			"componentType":5126,
			"count":4,
			"type":"VEC2"
		},
		{
			"bufferView":51,
			"componentType":5126,
			"count":4,
			"max":[
				1.4799995422363281,
				0.5200004577636719,
				0
			],
			"min":[
				0,
				0,
				0
			],
			"type":"VEC3"
		},
		{
			"bufferView":52,
			"componentType":5126,
			"count":4,
			"type":"VEC3"
		},
		{
			"bufferView":53,
			"componentType":5126,
			"count":4,
			"type":"VEC2"
		}
	],
	"bufferViews":[
		{
			"buffer":0,
			"byteLength":288,
			"byteOffset":0,
			"target":34962
		},
		{
			"buffer":0,
			"byteLength":288,
			"byteOffset":288,
			"target":34962
		},
		{
			"buffer":0,
			"byteLength":192,
			"byteOffset":576,
			"target":34962
		},
		{
			"buffer":0,
			"byteLength":72,
			"byteOffset":768,
			"target":34963
		},
		{
			"buffer":0,
			"byteLength":72,
			"byteOffset":840,
			"target":34962
		},
		{
			"buffer":0,
			"byteLength":72,
			"byteOffset":912,
			"target":34962
		},
		{
			"buffer":0,
			"byteLength":48,
			"byteOffset":984,
			"target":34962
		},
		{
			"buffer":0,
			"byteLength":24,
			"byteOffset":1032,
			"target":34963
		},
		{
			"buffer":0,
			"byteLength":288,
			"byteOffset":1056,
			"target":34962
		},
		{
			"buffer":0,
			"byteLength":288,
			"byteOffset":1344,
			"target":34962
		},
		{
			"buffer":0,
			"byteLength":192,
			"byteOffset":1632,
			"target":34962
		},
		{
			"buffer":0,
			"byteLength":48,
			"byteOffset":1824,
			"target":34962
		},
		{
			"buffer":0,
			"byteLength":48,
			"byteOffset":1872,
			"target":34962
		},
		{
			"buffer":0,
			"byteLength":32,
			"byteOffset":1920,
			"target":34962
		},
		{
			"buffer":0,
			"byteLength":12,
			"byteOffset":1952,
			"target":34963
		},
		{
			"buffer":0,
			"byteLength":96,
			"byteOffset":1964,
			"target":34962
		},
		{
			"buffer":0,
			"byteLength":96,
			"byteOffset":2060,
			"target":34962
		},
		{
			"buffer":0,
			"byteLength":64,
			"byteOffset":2156,
			"target":34962
		},
		{
			"buffer":0,
			"byteLength":24,
			"byteOffset":2220,
			"target":34963
		},
		{
			"buffer":0,
			"byteLength":144,
			"byteOffset":2244,
			"target":34962
		},
		{
			"buffer":0,
			"byteLength":144,
			"byteOffset":2388,
			"target":34962
		},
		{
			"buffer":0,
			"byteLength":96,
			"byteOffset":2532,
			"target":34962
		},
		{
			"buffer":0,
			"byteLength":36,
			"byteOffset":2628,
			"target":34963
		},
		{
			"buffer":0,
			"byteLength":48,
			"byteOffset":2664,
			"target":34962
		},
		{
			"buffer":0,
			"byteLength":48,
			"byteOffset":2712,
			"target":34962
		},
		{
			"buffer":0,
			"byteLength":32,
			"byteOffset":2760,
			"target":34962
		},
		{
			"buffer":0,
			"byteLength":96,
			"byteOffset":2792,
			"target":34962
		},
		{
			"buffer":0,
			"byteLength":96,
			"byteOffset":2888,
			"target":34962
		},
		{
			"buffer":0,
			"byteLength":64,
			"byteOffset":2984,
			"target":34962
		},
		{
			"buffer":0,
			"byteLength":24,
			"byteOffset":3048,
			"target":34963
		},
		{
			"buffer":0,
			"byteLength":48,
			"byteOffset":3072,
			"target":34962
		},
		{
			"buffer":0,
			"byteLength":48,
			"byteOffset":3120,
			"target":34962
		},
		{
			"buffer":0,
			"byteLength":32,
			"byteOffset":3168,
			"target":34962
		},
		{
			"buffer":0,
			"byteLength":48,
			"byteOffset":3200,
			"target":34962
		},
		{
			"buffer":0,
			"byteLength":48,
			"byteOffset":3248,
			"target":34962
		},
		{
			"buffer":0,
			"byteLength":32,
			"byteOffset":3296,
			"target":34962
		},
		{
			"buffer":0,
			"byteLength":48,
			"byteOffset":3328,
			"target":34962
		},
		{
			"buffer":0,
			"byteLength":48,
			"byteOffset":3376,
			"target":34962
		},
		{
			"buffer":0,
			"byteLength":32,
			"byteOffset":3424,
			"target":34962
		},
		{
			"buffer":0,
			"byteLength":48,
			"byteOffset":3456,
			"target":34962
		},
		{
			"buffer":0,
			"byteLength":48,
			"byteOffset":3504,
			"target":34962
		},
		{
			"buffer":0,
			"byteLength":32,
			"byteOffset":3552,
			"target":34962
		},
		{
			"buffer":0,
			"byteLength":48,
			"byteOffset":3584,
			"target":34962
		},
		{
			"buffer":0,
			"byteLength":48,
			"byteOffset":3632,
			"target":34962
		},
		{
			"buffer":0,
			"byteLength":32,
			"byteOffset":3680,
			"target":34962
		},
		{
			"buffer":0,
			"byteLength":48,
			"byteOffset":3712,
			"target":34962
		},
		{
			"buffer":0,
			"byteLength":48,
			"byteOffset":3760,
			"target":34962
		},
		{
			"buffer":0,
			"byteLength":32,
			"byteOffset":3808,
			"target":34962
		},
		{
			"buffer":0,
			"byteLength":48,
			"byteOffset":3840,
			"target":34962
		},
		{
			"buffer":0,
			"byteLength":48,
			"byteOffset":3888,
			"target":34962
		},
		{
			"buffer":0,
			"byteLength":32,
			"byteOffset":3936,
			"target":34962
		},
		{
			"buffer":0,
			"byteLength":48,
			"byteOffset":3968,
			"target":34962
		},
		{
			"buffer":0,
			"byteLength":48,
			"byteOffset":4016,
			"target":34962
		},
		{
			"buffer":0,
			"byteLength":32,
			"byteOffset":4064,
			"target":34962
		}
	],
	"buffers":[
		{
			"byteLength":4096,
			"uri":"data:application/octet-stream;base64,"
		}
	]
}
