# Blender 3.6.4
# www.blender.org
mtllib 空间建模.mtl
o Room
v -2.576114 0.660002 5.860209
v -2.576114 0.000000 5.860209
v 3.223890 0.660002 5.860209
v 3.223890 0.000000 5.860209
v 3.223890 0.660002 -5.999789
v 3.223890 0.000000 -5.999789
v -1.836110 0.660002 -5.999789
v -1.836110 0.000000 -5.999789
v -1.836110 0.660002 2.540210
v -1.836110 0.000000 2.540210
v -2.576110 0.660002 2.540210
v -2.576110 0.000000 2.540210
v -2.486114 0.660002 5.770209
v -2.486114 0.000000 5.770209
v 3.133890 0.660002 5.770209
v 3.133890 0.000000 5.770209
v 3.133890 0.660002 -5.909789
v 3.133890 0.000000 -5.909789
v -1.746110 0.660002 -5.909789
v -1.746110 0.000000 -5.909789
v -1.746110 0.660002 2.630210
v -1.746110 0.000000 2.630210
v -2.486110 0.660002 2.630210
v -2.486110 0.000000 2.630210
vn -0.0000 -0.0000 1.0000
vn 1.0000 -0.0000 -0.0000
vn -0.0000 -0.0000 -1.0000
vn -1.0000 -0.0000 -0.0000
vn -0.0000 -1.0000 -0.0000
vn -0.0000 1.0000 -0.0000
vt 0.018726 0.999959
vt 0.000041 0.999959
vt 0.000041 0.835759
vt 0.018726 0.835759
vt 0.000041 0.500000
vt 0.018726 0.500000
vt 0.000041 0.356750
vt 0.018726 0.356750
vt 0.000041 0.114981
vt 0.018726 0.114981
vt 0.000041 0.094031
vt 0.018726 0.094031
vt 0.018726 0.000041
vt 0.000041 0.000041
s 0
usemtl Wall_material
f 1/1/1 2/2/1 4/3/1 3/4/1
f 3/4/2 4/3/2 6/5/2 5/6/2
f 5/6/3 6/5/3 8/7/3 7/8/3
f 7/8/4 8/7/4 10/9/4 9/10/4
f 9/10/3 10/9/3 12/11/3 11/12/3
f 1/13/4 11/12/4 12/11/4 2/14/4
f 13/1/3 15/4/3 16/3/3 14/2/3
f 15/4/4 17/6/4 18/5/4 16/3/4
f 17/6/1 19/8/1 20/7/1 18/5/1
f 19/8/2 21/10/2 22/9/2 20/7/2
f 21/10/1 23/12/1 24/11/1 22/9/1
f 13/13/2 14/14/2 24/11/2 23/12/2
f 2/14/5 12/11/5 24/11/5 14/14/5
f 1/1/6 3/4/6 15/4/6 13/1/6
f 3/4/6 5/6/6 17/6/6 15/4/6
f 5/6/6 7/8/6 19/8/6 17/6/6
f 7/8/6 9/10/6 21/10/6 19/8/6
f 10/9/5 8/7/5 20/7/5 22/9/5
f 9/10/6 11/12/6 23/12/6 21/10/6
f 12/11/5 10/9/5 22/9/5 24/11/5
f 8/7/5 6/5/5 18/5/5 20/7/5
f 4/3/5 2/2/5 14/2/5 16/3/5
f 6/5/5 4/3/5 16/3/5 18/5/5
f 11/12/6 1/13/6 13/13/6 23/12/6
o Room.001
v -2.485537 0.530000 4.156103
v -2.485537 0.000000 4.156103
v 1.154463 0.530000 4.156103
v 1.154463 0.000000 4.156103
v -2.485537 0.530000 4.096103
v -2.485537 0.000000 4.096103
v 1.154463 0.530000 4.096103
v 1.154463 0.000000 4.096103
vn -0.0000 -0.0000 1.0000
vn -0.0000 -0.0000 -1.0000
vn -1.0000 -0.0000 -0.0000
vn -0.0000 1.0000 -0.0000
vn 1.0000 -0.0000 -0.0000
vn -0.0000 -1.0000 -0.0000
vt 0.127134 0.000047
vt 0.000047 0.127134
vt 0.872867 0.999953
vt 0.999953 0.872866
s 0
usemtl Wall_material
f 25/15/7 26/16/7 28/17/7 27/18/7
f 29/15/8 31/18/8 32/17/8 30/16/8
f 26/16/9 25/15/9 29/15/9 30/16/9
f 25/15/10 27/18/10 31/18/10 29/15/10
f 27/18/11 28/17/11 32/17/11 31/18/11
f 28/17/12 26/16/12 30/16/12 32/17/12
o Room.002
v 3.134485 0.550000 0.163419
v 3.134485 0.000000 0.163419
v 1.164485 0.550000 0.163419
v 1.164485 0.000000 0.163419
v 1.164485 0.550000 5.823419
v 1.164485 0.000000 5.823419
v 3.134485 0.550000 0.103418
v 3.134485 0.000000 0.103418
v 1.104485 0.550000 0.103419
v 1.104485 0.000000 0.103419
v 1.104485 0.550000 5.823419
v 1.104485 0.000000 5.823419
vn -0.0000 -0.0000 1.0000
vn 1.0000 -0.0000 -0.0000
vn -0.0000 -0.0000 -1.0000
vn -1.0000 -0.0000 -0.0000
vn -0.0000 1.0000 -0.0000
vn -0.0000 -1.0000 -0.0000
vt 0.932732 0.999964
vt 0.691918 0.759150
vt 0.759150 0.691918
vt 0.999965 0.932732
vt 0.000035 0.067268
vt 0.067268 0.000035
s 0
usemtl Wall_material
f 33/19/13 35/20/13 36/21/13 34/22/13
f 35/20/14 37/23/14 38/24/14 36/21/14
f 39/19/15 40/22/15 42/21/15 41/20/15
f 41/20/16 42/21/16 44/24/16 43/23/16
f 33/19/14 34/22/14 40/22/14 39/19/14
f 35/20/17 33/19/17 39/19/17 41/20/17
f 37/23/17 35/20/17 41/20/17 43/23/17
f 38/24/13 37/23/13 43/23/13 44/24/13
f 34/22/18 36/21/18 42/21/18 40/22/18
f 36/21/18 38/24/18 44/24/18 42/21/18
o Room.003
v -1.746492 0.580000 1.610401
v -1.746492 0.000000 1.610401
v 0.423508 0.580000 1.610401
v 0.423508 0.000000 1.610401
v 0.423508 0.580000 -0.859598
v 0.423508 0.000000 -0.859598
v -1.756491 0.580000 -0.859598
v -1.756491 0.000000 -0.859598
v -1.746492 0.580000 1.670401
v -1.746492 0.000000 1.670401
v 0.483508 0.580000 1.670401
v 0.483508 0.000000 1.670401
v 0.483508 0.580000 -0.919598
v 0.483508 0.000000 -0.919598
v -1.756491 0.580000 -0.919598
v -1.756491 0.000000 -0.919598
vn -0.0000 -0.0000 -1.0000
vn -1.0000 -0.0000 -0.0000
vn -0.0000 -0.0000 1.0000
vn 1.0000 -0.0000 -0.0000
vn -0.0000 1.0000 -0.0000
vn -0.0000 -1.0000 -0.0000
vt 0.921589 0.999962
vt 0.628368 0.706741
vt 0.706741 0.628369
vt 0.999962 0.921590
vt 0.294610 0.372983
vt 0.372983 0.294610
vt 0.000038 0.078410
vt 0.078411 0.000038
s 0
usemtl Wall_material
f 45/25/19 47/26/19 48/27/19 46/28/19
f 47/26/20 49/29/20 50/30/20 48/27/20
f 49/29/21 51/31/21 52/32/21 50/30/21
f 53/25/21 54/28/21 56/27/21 55/26/21
f 55/26/22 56/27/22 58/30/22 57/29/22
f 57/29/19 58/30/19 60/32/19 59/31/19
f 45/25/20 46/28/20 54/28/20 53/25/20
f 47/26/23 45/25/23 53/25/23 55/26/23
f 49/29/23 47/26/23 55/26/23 57/29/23
f 51/31/23 49/29/23 57/29/23 59/31/23
f 52/32/20 51/31/20 59/31/20 60/32/20
f 50/30/24 52/32/24 60/32/24 58/30/24
f 48/27/24 50/30/24 58/30/24 56/27/24
f 46/28/24 48/27/24 56/27/24 54/28/24
o Room.005
v -1.780514 0.550000 -4.456956
v -1.780514 0.000000 -4.456956
v 3.209486 0.550000 -4.456956
v 3.209486 0.000000 -4.456956
v -1.780514 0.550000 -4.516956
v -1.780514 0.000000 -4.516956
v 3.209486 0.550000 -4.516956
v 3.209486 0.000000 -4.516956
vn -0.0000 -0.0000 1.0000
vn -0.0000 -0.0000 -1.0000
vn -1.0000 -0.0000 -0.0000
vn -0.0000 1.0000 -0.0000
vn 1.0000 -0.0000 -0.0000
vn -0.0000 -1.0000 -0.0000
vt 0.099312 0.000042
vt 0.000042 0.099312
vt 0.900688 0.999958
vt 0.999958 0.900688
s 0
usemtl Wall_material
f 61/33/25 62/34/25 64/35/25 63/36/25
f 65/33/26 67/36/26 68/35/26 66/34/26
f 62/34/27 61/33/27 65/33/27 66/34/27
f 61/33/28 63/36/28 67/36/28 65/33/28
f 63/36/29 64/35/29 68/35/29 67/36/29
f 64/35/30 62/34/30 66/34/30 68/35/30
o Room.004
v 0.446211 0.580000 3.491326
v 0.446211 0.000000 3.491326
v -0.173788 0.580000 3.491326
v -0.173788 0.000000 3.491326
v -0.173788 0.580000 1.621326
v -0.173788 0.000000 1.621326
v 0.446211 0.580000 3.551326
v 0.446211 0.000000 3.551326
v -0.233788 0.580000 3.551326
v -0.233788 0.000000 3.551326
v -0.233788 0.580000 1.621326
v -0.233788 0.000000 1.621326
vn -0.0000 -0.0000 -1.0000
vn 1.0000 -0.0000 -0.0000
vn -0.0000 -0.0000 1.0000
vn -1.0000 -0.0000 -0.0000
vn -0.0000 1.0000 -0.0000
vn -0.0000 -1.0000 -0.0000
vt 0.188960 0.000055
vt 0.000055 0.188960
vt 0.201987 0.390892
vt 0.390891 0.201987
vt 0.811040 0.999945
vt 0.999945 0.811040
s 0
usemtl Wall_material
f 69/37/31 70/38/31 72/39/31 71/40/31
f 71/40/32 72/39/32 74/41/32 73/42/32
f 75/37/33 77/40/33 78/39/33 76/38/33
f 77/40/34 79/42/34 80/41/34 78/39/34
f 70/38/32 69/37/32 75/37/32 76/38/32
f 69/37/35 71/40/35 77/40/35 75/37/35
f 71/40/35 73/42/35 79/42/35 77/40/35
f 73/42/31 74/41/31 80/41/31 79/42/31
f 72/39/36 70/38/36 76/38/36 78/39/36
f 74/41/36 72/39/36 78/39/36 80/41/36
o Room.006
v 1.140476 0.551590 1.456984
v 1.140476 0.031590 1.456984
v 3.160477 0.551590 1.456984
v 3.160477 0.031590 1.456984
v 1.140476 0.551590 1.396984
v 1.140476 0.031590 1.396984
v 3.160477 0.551590 1.396984
v 3.160477 0.031590 1.396984
vn -0.0000 -0.0000 1.0000
vn -0.0000 -0.0000 -1.0000
vn -1.0000 -0.0000 -0.0000
vn -0.0000 1.0000 -0.0000
vn 1.0000 -0.0000 -0.0000
vn -0.0000 -1.0000 -0.0000
vt 0.204758 0.000057
vt 0.000057 0.204758
vt 0.795242 0.999943
vt 0.999943 0.795242
s 0
usemtl Wall_material
f 81/43/37 82/44/37 84/45/37 83/46/37
f 85/43/38 87/46/38 88/45/38 86/44/38
f 82/44/39 81/43/39 85/43/39 86/44/39
f 81/43/40 83/46/40 87/46/40 85/43/40
f 83/46/41 84/45/41 88/45/41 87/46/41
f 84/45/42 82/44/42 86/44/42 88/45/42
o Room.007
v 1.140476 0.551590 2.598945
v 1.140476 0.031590 2.598945
v 3.160477 0.551590 2.598945
v 3.160477 0.031590 2.598945
v 1.140476 0.551590 2.538945
v 1.140476 0.031590 2.538945
v 3.160477 0.551590 2.538945
v 3.160477 0.031590 2.538945
vn -0.0000 -0.0000 1.0000
vn -0.0000 -0.0000 -1.0000
vn -1.0000 -0.0000 -0.0000
vn -0.0000 1.0000 -0.0000
vn 1.0000 -0.0000 -0.0000
vn -0.0000 -1.0000 -0.0000
vt 0.204758 0.000057
vt 0.000057 0.204758
vt 0.795242 0.999943
vt 0.999943 0.795242
s 0
usemtl Wall_material
f 89/47/43 90/48/43 92/49/43 91/50/43
f 93/47/44 95/50/44 96/49/44 94/48/44
f 90/48/45 89/47/45 93/47/45 94/48/45
f 89/47/46 91/50/46 95/50/46 93/47/46
f 91/50/47 92/49/47 96/49/47 95/50/47
f 92/49/48 90/48/48 94/48/48 96/49/48
o Room.008
v 1.140476 0.551590 3.748781
v 1.140476 0.031590 3.748781
v 3.160477 0.551590 3.748781
v 3.160477 0.031590 3.748781
v 1.140476 0.551590 3.688781
v 1.140476 0.031590 3.688781
v 3.160477 0.551590 3.688781
v 3.160477 0.031590 3.688781
vn -0.0000 -0.0000 1.0000
vn -0.0000 -0.0000 -1.0000
vn -1.0000 -0.0000 -0.0000
vn -0.0000 1.0000 -0.0000
vn 1.0000 -0.0000 -0.0000
vn -0.0000 -1.0000 -0.0000
vt 0.204758 0.000057
vt 0.000057 0.204758
vt 0.795242 0.999943
vt 0.999943 0.795242
s 0
usemtl Wall_material
f 97/51/49 98/52/49 100/53/49 99/54/49
f 101/51/50 103/54/50 104/53/50 102/52/50
f 98/52/51 97/51/51 101/51/51 102/52/51
f 97/51/52 99/54/52 103/54/52 101/51/52
f 99/54/53 100/53/53 104/53/53 103/54/53
f 100/53/54 98/52/54 102/52/54 104/53/54
o Room.009
v -2.521674 0.551590 5.127010
v -2.521674 0.031590 5.127010
v -1.881673 0.551590 5.127010
v -1.881673 0.031590 5.127010
v -2.521674 0.551590 5.067010
v -2.521674 0.031590 5.067010
v -1.881673 0.551590 5.067010
v -1.881673 0.031590 5.067010
vn -0.0000 -0.0000 1.0000
vn -0.0000 -0.0000 -1.0000
vn -1.0000 -0.0000 -0.0000
vn -0.0000 1.0000 -0.0000
vn 1.0000 -0.0000 -0.0000
vn -0.0000 -1.0000 -0.0000
vt 0.000090 0.999910
vt 0.812443 0.999910
vt 0.812443 0.000090
vt 0.000090 0.000090
s 0
usemtl Wall_material
f 105/55/55 106/56/55 108/57/55 107/58/55
f 109/55/56 111/58/56 112/57/56 110/56/56
f 106/56/57 105/55/57 109/55/57 110/56/57
f 105/55/58 107/58/58 111/58/58 109/55/58
f 107/58/59 108/57/59 112/57/59 111/58/59
f 108/57/60 106/56/60 110/56/60 112/57/60
o Room.010
v -0.832706 0.550000 5.783209
v -0.832706 0.000000 5.783209
v -0.832706 0.550000 4.123209
v -0.832706 0.000000 4.123209
v -0.892706 0.550000 5.783209
v -0.892706 0.000000 5.783209
v -0.892706 0.550000 4.123209
v -0.892706 0.000000 4.123209
vn 1.0000 -0.0000 -0.0000
vn -1.0000 -0.0000 -0.0000
vn -0.0000 -0.0000 1.0000
vn -0.0000 1.0000 -0.0000
vn -0.0000 -0.0000 -1.0000
vn -0.0000 -1.0000 -0.0000
vt 0.248900 0.000061
vt 0.000061 0.248900
vt 0.751100 0.999939
vt 0.999939 0.751100
s 0
usemtl Wall_material
f 113/59/61 114/60/61 116/61/61 115/62/61
f 117/59/62 119/62/62 120/61/62 118/60/62
f 114/60/63 113/59/63 117/59/63 118/60/63
f 113/59/64 115/62/64 119/62/64 117/59/64
f 115/62/65 116/61/65 120/61/65 119/62/65
f 116/61/66 114/60/66 118/60/66 120/61/66
o Room.011
v -1.516351 0.550000 5.783209
v -1.516351 0.000000 5.783209
v -1.516351 0.550000 4.123209
v -1.516351 0.000000 4.123209
v -1.576351 0.550000 5.783209
v -1.576351 0.000000 5.783209
v -1.576351 0.550000 4.123209
v -1.576351 0.000000 4.123209
vn 1.0000 -0.0000 -0.0000
vn -1.0000 -0.0000 -0.0000
vn -0.0000 -0.0000 1.0000
vn -0.0000 1.0000 -0.0000
vn -0.0000 -0.0000 -1.0000
vn -0.0000 -1.0000 -0.0000
vt 0.248900 0.000061
vt 0.000061 0.248900
vt 0.751100 0.999939
vt 0.999939 0.751100
s 0
usemtl Wall_material
f 121/63/67 122/64/67 124/65/67 123/66/67
f 125/63/68 127/66/68 128/65/68 126/64/68
f 122/64/69 121/63/69 125/63/69 126/64/69
f 121/63/70 123/66/70 127/66/70 125/63/70
f 123/66/71 124/65/71 128/65/71 127/66/71
f 124/65/72 122/64/72 126/64/72 128/65/72
o Room.012
v -0.358758 0.520000 -4.475150
v -0.358758 0.000000 -4.475150
v -0.358758 0.520000 -5.955149
v -0.358758 0.000000 -5.955149
v -0.418758 0.520000 -4.475150
v -0.418758 0.000000 -4.475150
v -0.418758 0.520000 -5.955149
v -0.418758 0.000000 -5.955149
vn 1.0000 -0.0000 -0.0000
vn -1.0000 -0.0000 -0.0000
vn -0.0000 -0.0000 1.0000
vn -0.0000 1.0000 -0.0000
vn -0.0000 -0.0000 -1.0000
vn -0.0000 -1.0000 -0.0000
vt 0.260030 0.000062
vt 0.000062 0.260030
vt 0.739970 0.999938
vt 0.999938 0.739970
s 0
usemtl Wall_material
f 129/67/73 130/68/73 132/69/73 131/70/73
f 133/67/74 135/70/74 136/69/74 134/68/74
f 130/68/75 129/67/75 133/67/75 134/68/75
f 129/67/76 131/70/76 135/70/76 133/67/76
f 131/70/77 132/69/77 136/69/77 135/70/77
f 132/69/78 130/68/78 134/68/78 136/69/78
o Room.013
v 1.079631 0.520000 -4.475150
v 1.079631 0.000000 -4.475150
v 1.079631 0.520000 -5.955149
v 1.079631 0.000000 -5.955149
v 1.019632 0.520000 -4.475150
v 1.019632 0.000000 -4.475150
v 1.019631 0.520000 -5.955149
v 1.019631 0.000000 -5.955149
vn 1.0000 -0.0000 -0.0000
vn -1.0000 -0.0000 -0.0000
vn -0.0000 -0.0000 1.0000
vn -0.0000 1.0000 -0.0000
vn -0.0000 -0.0000 -1.0000
vn -0.0000 -1.0000 -0.0000
vt 0.260030 0.000062
vt 0.000062 0.260030
vt 0.739970 0.999938
vt 0.999938 0.739970
s 0
usemtl Wall_material
f 137/71/79 138/72/79 140/73/79 139/74/79
f 141/71/80 143/74/80 144/73/80 142/72/80
f 138/72/81 137/71/81 141/71/81 142/72/81
f 137/71/82 139/74/82 143/74/82 141/71/82
f 139/74/83 140/73/83 144/73/83 143/74/83
f 140/73/84 138/72/84 142/72/84 144/73/84
o Baseboard
v -2.576114 0.060000 5.860209
v -2.576114 0.000000 5.860209
v 3.223890 0.060000 5.860209
v 3.223890 0.000000 5.860209
v 3.223890 0.060000 -5.999789
v 3.223890 0.000000 -5.999789
v -1.836110 0.060000 -5.999789
v -1.836110 0.000000 -5.999789
v -1.836110 0.060000 2.540210
v -1.836110 0.000000 2.540210
v -2.576110 0.060000 2.540210
v -2.576110 0.000000 2.540210
v -2.471114 0.060000 5.755209
v -2.471114 0.000000 5.755209
v 3.118890 0.060000 5.755209
v 3.118890 0.000000 5.755209
v 3.118890 0.060000 -5.894790
v 3.118890 0.000000 -5.894790
v -1.731110 0.060000 -5.894790
v -1.731110 0.000000 -5.894790
v -1.731110 0.060000 2.645210
v -1.731110 0.000000 2.645210
v -2.471110 0.060000 2.645210
v -2.471110 0.000000 2.645210
vn -0.0000 -0.0000 1.0000
vn 1.0000 -0.0000 -0.0000
vn -0.0000 -0.0000 -1.0000
vn -1.0000 -0.0000 -0.0000
vn -0.0000 -1.0000 -0.0000
vn -0.0000 1.0000 -0.0000
vt 0.018809 0.000041
vt 0.020507 0.000041
vt 0.020507 0.164241
vt 0.018809 0.164241
vt 0.020507 0.500000
vt 0.018809 0.500000
vt 0.020507 0.643250
vt 0.018809 0.643250
vt 0.020507 0.885019
vt 0.018809 0.885019
vt 0.020507 0.905969
vt 0.018809 0.905969
vt 0.018809 0.999959
vt 0.020507 0.999959
s 0
usemtl Baseboard_material
f 145/75/85 146/76/85 148/77/85 147/78/85
f 147/78/86 148/77/86 150/79/86 149/80/86
f 149/80/87 150/79/87 152/81/87 151/82/87
f 151/82/88 152/81/88 154/83/88 153/84/88
f 153/84/87 154/83/87 156/85/87 155/86/87
f 145/87/88 155/86/88 156/85/88 146/88/88
f 157/75/87 159/78/87 160/77/87 158/76/87
f 159/78/88 161/80/88 162/79/88 160/77/88
f 161/80/85 163/82/85 164/81/85 162/79/85
f 163/82/86 165/84/86 166/83/86 164/81/86
f 165/84/85 167/86/85 168/85/85 166/83/85
f 157/87/86 158/88/86 168/85/86 167/86/86
f 146/88/89 156/85/89 168/85/89 158/88/89
f 145/75/90 147/78/90 159/78/90 157/75/90
f 147/78/90 149/80/90 161/80/90 159/78/90
f 149/80/90 151/82/90 163/82/90 161/80/90
f 151/82/90 153/84/90 165/84/90 163/82/90
f 154/83/89 152/81/89 164/81/89 166/83/89
f 153/84/90 155/86/90 167/86/90 165/84/90
f 156/85/89 154/83/89 166/83/89 168/85/89
f 152/81/89 150/79/89 162/79/89 164/81/89
f 148/77/89 146/76/89 158/76/89 160/77/89
f 150/79/89 148/77/89 160/77/89 162/79/89
f 155/86/90 145/87/90 157/87/90 167/86/90
o Floor
v -2.576114 0.000000 5.860209
v 3.223890 0.000000 5.860209
v 3.223890 0.000000 -5.999789
v -1.836110 0.000000 -5.999789
v -1.836110 0.000000 2.540210
v -2.576110 0.000000 2.540210
vn -0.0000 1.0000 -0.0000
vt 0.184789 0.335801
vt 0.020590 0.335801
vt 0.020590 0.000041
vt 0.163840 0.000041
vt 0.163840 0.241811
vt 0.184789 0.241811
s 0
usemtl Floor_material
f 169/89/91 170/90/91 171/91/91 172/92/91 173/93/91 174/94/91
